<svg id="Layer_2" data-name="Layer 2" xmlns="http://www.w3.org/2000/svg" width="72" height="72" viewBox="0 0 72 72">
  <defs>
    <style>
      .cls-1 {
        fill: none;
      }

      .cls-2 {
        fill: #0a2240;
      }
    </style>
  </defs>
  <g id="invisible_box" data-name="invisible box">
    <rect id="Rectangle_18" data-name="Rectangle 18" class="cls-1" width="72" height="72"/>
  </g>
  <g id="icons_Q2" data-name="icons Q2" transform="translate(6.007 3.003)">
    <g id="Group_17" data-name="Group 17">
      <path id="Path_8" data-name="Path 8" class="cls-2" d="M21.01,32.007H15A3,3,0,1,1,15,26H21.01a3,3,0,0,1,0,6.007Z" transform="translate(0.014 10.041)"/>
      <path id="Path_9" data-name="Path 9" class="cls-2" d="M33.024,24.007H15A3,3,0,1,1,15,18H33.024a3,3,0,1,1,0,6.007Z" transform="translate(0.014 6.027)"/>
      <path id="Path_10" data-name="Path 10" class="cls-2" d="M33.024,16.007H15A3,3,0,0,1,15,10H33.024a3,3,0,1,1,0,6.007Z" transform="translate(0.014 2.014)"/>
      <path id="Path_11" data-name="Path 11" class="cls-2" d="M61.065,11.01h-9.01V5a3,3,0,0,0-3-3H7A3,3,0,0,0,4,5V53.058a3,3,0,0,0,3,3H13.01v9.01a3,3,0,0,0,3,3H61.065a3,3,0,0,0,3-3V14.014A3,3,0,0,0,61.065,11.01Zm-51.058-3H46.048V50.055H10.007ZM58.062,62.068H19.017V56.062H49.051a3,3,0,0,0,3-3V17.017h6.007Z" transform="translate(-4 -2)"/>
    </g>
  </g>
</svg>
