<svg id="Layer_2" data-name="Layer 2" xmlns="http://www.w3.org/2000/svg" width="78" height="78" viewBox="0 0 78 78">
  <defs>
    <style>
      .cls-1 {
        fill: none;
      }

      .cls-2 {
        fill: #0a2240;
      }
    </style>
  </defs>
  <g id="invisible_box" data-name="invisible box">
    <rect id="Rectangle_17" data-name="Rectangle 17" class="cls-1" width="78" height="78"/>
  </g>
  <g id="Q3_icons" data-name="Q3 icons" transform="translate(9.75 3.248)">
    <g id="Group_16" data-name="Group 16">
      <path id="Path_6" data-name="Path 6" class="cls-2" d="M47.275,14.838l2.438-8.45a3.25,3.25,0,0,0-3.088-4.225h-.65L35.25,7.851,22.413,2H21.6a3.088,3.088,0,0,0-3.087,3.9l3.575,9.75C12.5,22.8,6,36.451,6,46.851,6,61.638,19.163,73.5,35.25,73.5S64.5,61.638,64.5,46.851C64.5,36.126,57.35,21.663,47.275,14.838ZM35.25,67C22.737,67,12.5,57.9,12.5,46.851s6.012-20.313,13.487-26l3.9-2.925L28.1,13.376l-.65-1.95,5.2,2.275L35.413,15l2.925-1.462,2.925-1.462-.325.813-1.3,4.712,3.9,2.6C52.15,26.051,58,38.726,58,46.851,58,57.9,47.763,67,35.25,67Z" transform="translate(-6 -1.999)"/>
      <path id="Path_7" data-name="Path 7" class="cls-2" d="M29.526,31.875c-5.687-1.138-5.687-2.112-5.687-2.925s.325-.975.813-1.462a5.525,5.525,0,0,1,2.925-.65A10.237,10.237,0,0,1,32.939,28.3a2.925,2.925,0,0,0,4.388-.812,3.087,3.087,0,0,0-.65-4.55,14.787,14.787,0,0,0-5.038-1.95V17.25a3.25,3.25,0,0,0-6.5,0v3.575c-4.875.813-8.125,4.063-8.125,8.45s5.362,7.963,10.563,8.938,5.362,2.112,5.362,2.925-1.788,2.275-4.062,2.275h0A10.888,10.888,0,0,1,22.214,41.3a3.25,3.25,0,0,0-4.55.975,2.925,2.925,0,0,0,.488,4.225,17.713,17.713,0,0,0,6.988,2.925V53a3.25,3.25,0,0,0,6.5,0V49.425a10.237,10.237,0,0,0,4.875-2.112,7.963,7.963,0,0,0,3.25-6.5h0C39.764,34.8,34.239,32.85,29.526,31.875Z" transform="translate(0.861 5.502)"/>
    </g>
  </g>
</svg>
