<svg id="Layer_2" data-name="Layer 2" xmlns="http://www.w3.org/2000/svg" width="96" height="96" viewBox="0 0 96 96">
  <defs>
    <style>
      .cls-1 {
        fill: none;
      }

      .cls-2 {
        fill: #0a2240;
      }
    </style>
  </defs>
  <g id="invisible_box" data-name="invisible box">
    <rect id="Rectangle_15" data-name="Rectangle 15" class="cls-1" width="96" height="96"/>
  </g>
  <g id="icons_Q2" data-name="icons Q2" transform="translate(4.02 12.061)">
    <path id="Path_2" data-name="Path 2" class="cls-2" d="M24.092,42.184A18.092,18.092,0,1,0,6,24.092,18.092,18.092,0,0,0,24.092,42.184Zm0-28.143A10.051,10.051,0,1,1,14.041,24.092,10.051,10.051,0,0,1,24.092,14.041Z" transform="translate(2.041 -6)"/>
    <path id="Path_3" data-name="Path 3" class="cls-2" d="M42.071,38.143A14.071,14.071,0,1,0,28,24.071,14.071,14.071,0,0,0,42.071,38.143Zm0-20.1a6.031,6.031,0,1,1-6.031,6.031,5.83,5.83,0,0,1,6.031-6.031Z" transform="translate(24.265 -1.959)"/>
    <path id="Path_4" data-name="Path 4" class="cls-2" d="M90.449,32.837,88.64,31.631a39.4,39.4,0,0,0-40.606,0l-1.608,1.206a49.451,49.451,0,0,0-16.283-2.814,47.039,47.039,0,0,0-26.334,7.84L2,39.069V54.146a4.02,4.02,0,0,0,4.02,4.02H54.265a4.02,4.02,0,0,0,4.02-4.02v-4.02H86.429a4.02,4.02,0,0,0,4.02-4.02Zm-40.2,17.288h-40.2V43.492a39.2,39.2,0,0,1,20.1-5.428,39.2,39.2,0,0,1,20.1,5.428Zm32.163-8.041H58.286V39.069l-1.809-1.206-1.206-.8a30.756,30.756,0,0,1,27.138.4Z" transform="translate(-2 14.201)"/>
  </g>
</svg>
