<svg xmlns="http://www.w3.org/2000/svg" width="87.651" height="75.221" viewBox="0 0 87.651 75.221">
  <defs>
    <style>
      .cls-1 {
        fill: #0a2240;
      }
    </style>
  </defs>
  <g id="Mail_Box" data-name="Mail Box" transform="translate(-2.017 -4)">
    <path id="Path_13" data-name="Path 13" class="cls-1" d="M80.319,46.656v-8.18a34.476,34.476,0,1,0-68.952,0v8.18A17.238,17.238,0,0,0,19.2,79.221h1.567a6.268,6.268,0,0,0,6.268-6.268V51.013a6.268,6.268,0,0,0-6.268-6.268H17.635V38.476a28.208,28.208,0,0,1,56.416,0v6.268H70.916a6.268,6.268,0,0,0-6.268,6.268V72.952h-9.4V69.818a3.134,3.134,0,0,0-3.134-3.134H45.843a3.134,3.134,0,0,0-3.134,3.134v6.268a3.134,3.134,0,0,0,3.134,3.134H72.483a17.238,17.238,0,0,0,7.835-32.564Zm-59.55,4.357V72.952H19.2a10.97,10.97,0,0,1,0-21.939ZM72.483,72.952H70.916V51.013h1.567a10.97,10.97,0,1,1,0,21.939Z" transform="translate(0 0)"/>
  </g>
</svg>
