<svg xmlns="http://www.w3.org/2000/svg" width="78" height="78" viewBox="0 0 78 78">
  <defs>
    <style>
      .cls-1 {
        fill: #0a2240;
      }
    </style>
  </defs>
  <path id="Path_14" data-name="Path 14" class="cls-1" d="M64.4,33.2A15.6,15.6,0,1,0,50.278,11.014L46.113,9.475A6.44,6.44,0,0,0,46.2,8.5a6.553,6.553,0,1,0-.992,3.414l4.169,1.539a15.313,15.313,0,0,0,.213,9.021l-14.3,6.059A15.526,15.526,0,0,0,16,21.219l-3.594-7.554A6.47,6.47,0,1,0,8.5,15a6.429,6.429,0,0,0,1.568-.2l3.587,7.537a15.572,15.572,0,0,0-.833,26.416l-2.369,4.258a6.545,6.545,0,1,0,2.27,1.27L15.1,50.01A15.469,15.469,0,0,0,30.98,48.16L36.1,53.789A15.525,15.525,0,0,0,31.9,64.4a15.682,15.682,0,0,0,.194,2.333L26.081,68.16A6.477,6.477,0,1,0,26.7,70.9c0-.07-.01-.142-.013-.212l6-1.424A15.594,15.594,0,1,0,61.24,57.024l7.64-4.967a6.659,6.659,0,1,0-1.412-2.184L59.81,54.851A15.682,15.682,0,0,0,54,50.236l6.345-17.59A15.518,15.518,0,0,0,64.4,33.2Zm0-28.6a12.981,12.981,0,0,1,9.814,21.5,9.119,9.119,0,0,0-5.173-5.259,6.5,6.5,0,1,0-9.283,0A9.127,9.127,0,0,0,54.585,26.1,12.982,12.982,0,0,1,64.4,4.6ZM8.5,35.8a13,13,0,1,1,22.814,8.5,9.119,9.119,0,0,0-5.173-5.258,6.5,6.5,0,1,0-9.283,0A9.127,9.127,0,0,0,11.685,44.3,12.939,12.939,0,0,1,8.5,35.8Zm52,28.6a12.933,12.933,0,0,1-3.186,8.5,9.119,9.119,0,0,0-5.173-5.258,6.5,6.5,0,1,0-9.283,0A9.127,9.127,0,0,0,37.685,72.9,12.993,12.993,0,1,1,60.5,64.4ZM51.555,49.354A15.384,15.384,0,0,0,38.02,52.04L32.9,46.411A15.486,15.486,0,0,0,36.31,30.926l14.3-6.059a15.685,15.685,0,0,0,7.294,6.9Z" transform="translate(-2 -2)"/>
</svg>
